<?xml version="1.0" encoding="UTF-8" standalone="no"?>
<!-- Created with Inkscape (http://www.inkscape.org/) -->

<svg
   xmlns:dc="http://purl.org/dc/elements/1.1/"
   xmlns:cc="http://creativecommons.org/ns#"
   xmlns:rdf="http://www.w3.org/1999/02/22-rdf-syntax-ns#"
   xmlns:svg="http://www.w3.org/2000/svg"
   xmlns="http://www.w3.org/2000/svg"
   xmlns:sodipodi="http://sodipodi.sourceforge.net/DTD/sodipodi-0.dtd"
   xmlns:inkscape="http://www.inkscape.org/namespaces/inkscape"
   width="210mm"
   height="297mm"
   id="svg2"
   version="1.1"
   inkscape:version="0.48.4 r9939"
   sodipodi:docname="logo app.svg">
  <defs
     id="defs4" />
  <sodipodi:namedview
     id="base"
     pagecolor="#ffffff"
     bordercolor="#666666"
     borderopacity="1.0"
     inkscape:pageopacity="0.0"
     inkscape:pageshadow="2"
     inkscape:zoom="0.98994949"
     inkscape:cx="168.23964"
     inkscape:cy="772.56313"
     inkscape:document-units="px"
     inkscape:current-layer="layer1"
     showgrid="false"
     showguides="true"
     inkscape:guide-bbox="true"
     inkscape:window-width="1920"
     inkscape:window-height="1028"
     inkscape:window-x="-8"
     inkscape:window-y="-8"
     inkscape:window-maximized="1" />
  <metadata
     id="metadata7">
    <rdf:RDF>
      <cc:Work
         rdf:about="">
        <dc:format>image/svg+xml</dc:format>
        <dc:type
           rdf:resource="http://purl.org/dc/dcmitype/StillImage" />
        <dc:title></dc:title>
      </cc:Work>
    </rdf:RDF>
  </metadata>
  <g
     inkscape:label="Capa 1"
     inkscape:groupmode="layer"
     id="layer1">
    <text
       xml:space="preserve"
       style="font-size:178.93264771px;font-style:normal;font-variant:normal;font-weight:normal;font-stretch:normal;text-align:start;line-height:125%;letter-spacing:0px;word-spacing:0px;writing-mode:lr-tb;text-anchor:start;fill:#cccccc;fill-opacity:1;stroke:none;font-family:IrisUPC;-inkscape-font-specification:IrisUPC"
       x="-254.82106"
       y="21.118956"
       id="text3013"
       sodipodi:linespacing="125%"><tspan
         sodipodi:role="line"
         id="tspan3015"
         x="-254.82106"
         y="21.118956">SGCM</tspan></text>
    <g
       id="g3092"
       inkscape:export-filename="D:\Proyectos\Sem\SGCM\docs\main-logo.png"
       inkscape:export-xdpi="104.01895"
       inkscape:export-ydpi="104.01895">
      <g
         id="g3076">
        <text
           sodipodi:linespacing="125%"
           id="text2997"
           y="222.13933"
           x="76.50898"
           style="font-size:178.93264771px;font-style:normal;font-variant:normal;font-weight:normal;font-stretch:normal;text-align:start;line-height:125%;letter-spacing:0px;word-spacing:0px;writing-mode:lr-tb;text-anchor:start;fill:#b3b3b3;fill-opacity:1;stroke:none;font-family:IrisUPC;-inkscape-font-specification:IrisUPC"
           xml:space="preserve"><tspan
             y="222.13933"
             x="76.50898"
             id="tspan2999"
             sodipodi:role="line">SGCM</tspan></text>
        <text
           xml:space="preserve"
           style="font-size:26.11171913px;font-style:normal;font-weight:normal;line-height:125%;letter-spacing:0px;word-spacing:0px;fill:#333333;fill-opacity:1;stroke:none;font-family:Sans"
           x="80.359734"
           y="254.80113"
           id="text3005"
           sodipodi:linespacing="125%"><tspan
             sodipodi:role="line"
             x="80.359734"
             y="254.80113"
             id="tspan3009">Sistema de Gestion de Consultorios Medicos</tspan></text>
      </g>
      <g
         transform="matrix(2.8085891,0,0,2.8085891,-1035.645,246.9873)"
         id="g3038">
        <path
           inkscape:connector-curvature="0"
           d="m 477.88612,20.815895 0,22.504252 -19.48461,-11.252126 -13.03212,22.583716 19.48461,11.236233 -19.48461,11.252126 13.03212,22.599609 19.48461,-11.252126 0,22.504251 26.09603,0 0,-22.488358 19.46872,11.236233 13.04802,-22.599609 -19.48461,-11.236233 19.48461,-11.252126 -13.04802,-22.583716 -19.46872,11.236233 0,-22.488359 -26.09603,0 z"
           id="rect13822"
           style="fill:#ffffff;fill-opacity:1;fill-rule:nonzero;stroke:#395475;stroke-width:0.86457014;stroke-linecap:round;stroke-linejoin:miter;stroke-miterlimit:4;stroke-opacity:1;stroke-dasharray:none;stroke-dashoffset:0" />
        <path
           inkscape:connector-curvature="0"
           d="m 479.4913,22.421071 0,23.664429 -20.50176,-11.840161 -11.44284,19.818363 20.50176,11.840161 -20.50176,11.824268 11.44284,19.818363 20.50176,-11.840161 0,23.680317 22.88568,0 0,-23.664424 20.48586,11.824268 11.44284,-19.818363 -20.50175,-11.824268 20.50175,-11.840161 -11.44284,-19.818363 -20.48586,11.824268 0,-23.648536 -22.88568,0 z"
           id="rect14795"
           style="fill:#395475;fill-opacity:1;fill-rule:nonzero;stroke:none" />
        <path
           inkscape:connector-curvature="0"
           d="m 488.35233,31.956436 c -0.055,-1.658892 1.44787,-3.206315 3.05401,-3.206315 1.14909,0 2.56405,0.874096 2.53079,2.331253 -0.40185,17.60873 -1.47173,53.331929 -1.87594,71.108646 -0.0122,0.53756 -0.68923,0.29931 -0.7138,-0.25211 -0.78544,-17.630726 -2.40343,-52.140043 -2.99506,-69.981474 z"
           id="path2161"
           style="fill:#ffffff;fill-opacity:1;fill-rule:evenodd;stroke:#395475;stroke-width:0.3051424;stroke-linecap:butt;stroke-linejoin:miter;stroke-miterlimit:4;stroke-opacity:1;stroke-dasharray:none" />
        <path
           inkscape:connector-curvature="0"
           d="m 489.12525,34.339603 c 1.27428,0 1.84647,0.774838 2.63479,1.456556 0.76149,0.658513 1.35863,1.261011 1.35863,1.908869 0,0.680854 -0.49979,0.476841 -1.02936,0.7269 -0.27896,0.131725 -0.25407,0.416377 -0.70971,0.416377 -1.09524,0 -1.5313,-1.030562 -3.02727,-1.030562 -1.23283,0 -2.83404,1.477265 -2.83404,4.18665 0,4.092006 1.57805,5.925723 3.44594,7.342744 l 0.19323,4.862952 c -1.99672,-0.837326 -7.14952,-5.378196 -7.14952,-11.690412 0,-5.493418 3.56662,-8.180074 7.11731,-8.180074 z"
           id="path4102"
           style="fill:#ffffff;fill-opacity:1;fill-rule:evenodd;stroke:#395475;stroke-width:0.3051424;stroke-linecap:butt;stroke-linejoin:miter;stroke-miterlimit:4;stroke-opacity:1;stroke-dasharray:none" />
        <path
           inkscape:connector-curvature="0"
           d="m 489.60832,35.708319 c 0.911,-0.144419 0.81937,0.402879 1.22379,0.756814 -0.93497,0.02777 -1.14212,-0.364375 -1.22379,-0.756814 z"
           id="path5075"
           style="fill:#395475;fill-opacity:1;fill-rule:evenodd;stroke:none" />
        <path
           inkscape:connector-curvature="0"
           d="m 493.44072,51.376054 -0.12882,4.637518 c 0,2.835002 -7.50377,7.808925 -7.50377,12.882004 0,3.906865 3.13999,6.408794 4.29937,6.988483 l -0.14492,-4.090037 c 0,0 -1.41702,-0.95562 -1.41702,-2.576399 0,-2.293486 8.63094,-8.200275 8.63094,-12.720975 0,-3.205373 -2.18994,-4.401353 -3.73578,-5.120594 z"
           id="path8971"
           style="fill:#ffffff;fill-opacity:1;fill-rule:evenodd;stroke:#395475;stroke-width:0.3051424;stroke-linecap:butt;stroke-linejoin:miter;stroke-miterlimit:4;stroke-opacity:1;stroke-dasharray:none" />
        <path
           inkscape:connector-curvature="0"
           d="m 492.84493,74.064474 c 0,0 2.94675,1.948192 2.94675,4.395983 0,2.094035 -1.6058,4.009648 -3.50278,5.990627 -2.21605,2.314185 -2.68402,5.211171 -1.37627,8.243987 l 0.11272,2.47978 c -0.95005,-0.772921 -2.44759,-3.187065 -2.44759,-7.213917 0,-4.847101 4.15445,-6.305325 4.15445,-10.772569 l 0.11272,-3.123891 z"
           id="path11880"
           style="fill:#ffffff;fill-opacity:1;fill-rule:evenodd;stroke:#395475;stroke-width:0.3051424;stroke-linecap:butt;stroke-linejoin:miter;stroke-miterlimit:4;stroke-opacity:1;stroke-dasharray:none" />
        <path
           inkscape:connector-curvature="0"
           d="m 492.26524,94.257013 c 0,0 1.36871,0.736385 1.36871,2.656911 0,1.80779 -2.26353,3.458596 -2.6086,3.703576 -0.33429,0.23732 -0.46241,-0.0717 -0.19324,-0.32205 0.27793,-0.25844 1.41702,-1.78497 1.41702,-3.54255 l 0.0161,-2.495887 z"
           id="path12851"
           style="fill:#ffffff;fill-rule:evenodd;stroke:#395475;stroke-width:0.3051424;stroke-linecap:butt;stroke-linejoin:miter;stroke-miterlimit:4;stroke-opacity:1;stroke-dasharray:none" />
      </g>
    </g>
    <g
       id="g3082"
       transform="translate(-623.26412,-32.324881)"
       inkscape:export-filename="D:\Proyectos\Sem\SGCM\docs\top-logo.png"
       inkscape:export-xdpi="34.672985"
       inkscape:export-ydpi="34.672985">
      <text
         sodipodi:linespacing="125%"
         id="text3084"
         y="222.13933"
         x="76.50898"
         style="font-size:178.93264771px;font-style:normal;font-variant:normal;font-weight:normal;font-stretch:normal;text-align:start;line-height:125%;letter-spacing:0px;word-spacing:0px;writing-mode:lr-tb;text-anchor:start;fill:#b3b3b3;fill-opacity:1;stroke:none;font-family:IrisUPC;-inkscape-font-specification:IrisUPC"
         xml:space="preserve"><tspan
           y="222.13933"
           x="76.50898"
           id="tspan3086"
           sodipodi:role="line">SGCM</tspan></text>
      <text
         xml:space="preserve"
         style="font-size:26.11171913px;font-style:normal;font-weight:normal;line-height:125%;letter-spacing:0px;word-spacing:0px;fill:#333333;fill-opacity:1;stroke:none;font-family:Sans"
         x="80.359734"
         y="254.80113"
         id="text3088"
         sodipodi:linespacing="125%"><tspan
           sodipodi:role="line"
           x="80.359734"
           y="254.80113"
           id="tspan3090">Sistema de Gestion de Consultorios Medicos</tspan></text>
    </g>
  </g>
</svg>
